<?xml version="1.0" encoding="utf-8"?>
<svg width="26px" height="26px" viewBox="0 0 26 26" version="1.1" xmlns:xlink="http://www.w3.org/1999/xlink" xmlns="http://www.w3.org/2000/svg">
  <desc>Created with Lunacy</desc>
  <g id="search-solid">
    <path d="M5.71875 10C5.71875 4.48828 10.207 0 15.7188 0C21.2305 0 25.7188 4.48828 25.7188 10C25.7188 15.5117 21.2305 20 15.7188 20C13.3242 20 11.1289 19.1602 9.40625 17.75L1.4375 25.7188L0 24.2813L7.96875 16.3125C6.55859 14.5898 5.71875 12.3945 5.71875 10ZM23.7188 10C23.7188 5.57031 20.1484 2 15.7188 2C11.2891 2 7.71875 5.57031 7.71875 10C7.71875 14.4297 11.2891 18 15.7188 18C20.1484 18 23.7188 14.4297 23.7188 10Z" id="Shape" fill="#898A89" fill-rule="evenodd" stroke="none" />
  </g>
</svg>