<?xml version="1.0" encoding="utf-8"?>
<svg width="42px" height="42px" viewBox="0 0 42 42" version="1.1" xmlns:xlink="http://www.w3.org/1999/xlink" xmlns="http://www.w3.org/2000/svg">
  <desc>Created with Lunacy</desc>
  <path d="M21 0C9.42097 0 0 9.42097 0 21C0 32.579 9.42097 42 21 42C32.579 42 42 32.579 42 21C42 9.42097 32.579 0 21 0ZM38.7689 21C38.7689 11.1689 30.8308 3.23077 20.9997 3.23077C11.1686 3.23077 3.23047 11.1689 3.23047 21C3.23047 30.8311 11.1686 38.7692 20.9997 38.7692C30.8308 38.7692 38.7689 30.8311 38.7689 21ZM21.0001 8.07692C16.5578 8.07692 12.9232 11.7115 12.9232 16.1538C12.9232 18.6022 14.0653 20.7791 15.8006 22.262C12.1659 24.1487 9.69238 27.9474 9.69238 32.3077L12.9232 32.3077C12.9232 27.8275 16.5199 24.2308 21.0001 24.2308C25.4802 24.2308 29.077 27.8275 29.077 32.3077L32.3078 32.3077C32.3078 27.9474 29.8342 24.1487 26.1996 22.262C27.9349 20.7791 29.077 18.6022 29.077 16.1538C29.077 11.7115 25.4424 8.07692 21.0001 8.07692ZM25.8466 16.1538C25.8466 13.4594 23.6949 11.3077 21.0005 11.3077C18.306 11.3077 16.1543 13.4594 16.1543 16.1538C16.1543 18.8483 18.306 21 21.0005 21C23.6949 21 25.8466 18.8483 25.8466 16.1538Z" id="user_icon" fill="#676A6D" fill-rule="evenodd" stroke="none" />
</svg>